<?xml version="1.0" encoding="UTF-8" standalone="no"?>
<svg width="1024" height="1024" viewBox="0 0 1024 1024" xmlns="http://www.w3.org/2000/svg">
  <!-- 背景 -->
  <defs>
    <linearGradient id="bgGradient" x1="0%" y1="0%" x2="100%" y2="100%">
      <stop offset="0%" style="stop-color:#2B3137;stop-opacity:1" />
      <stop offset="100%" style="stop-color:#1A1E22;stop-opacity:1" />
    </linearGradient>
    <filter id="shadow" x="-20%" y="-20%" width="140%" height="140%">
      <feGaussianBlur in="SourceAlpha" stdDeviation="20" />
      <feOffset dx="0" dy="10" result="offsetblur" />
      <feComponentTransfer>
        <feFuncA type="linear" slope="0.3" />
      </feComponentTransfer>
      <feMerge>
        <feMergeNode />
        <feMergeNode in="SourceGraphic" />
      </feMerge>
    </filter>
  </defs>
  
  <!-- 圆角矩形背景 -->
  <rect width="1024" height="1024" rx="220" ry="220" fill="url(#bgGradient)" />
  
  <!-- 辉光边框效果 -->
  <rect width="984" height="984" x="20" y="20" rx="200" ry="200" 
        fill="none" stroke="#4F9BFF" stroke-width="4" opacity="0.6" />
  
  <!-- GitHub Octocat 轮廓 - 居中放大 -->
  <g transform="translate(162, 162) scale(0.7)" fill="#FFFFFF" filter="url(#shadow)">
    <!-- 猫头 -->
    <path d="M511.6,0C229,0,0,229,0,511.6C0,737.8,146.6,930.6,349.8,998c25.6,4.7,34.9-11.1,34.9-24.5c0-12.2-0.5-52.6-0.7-95.3
    c-142.2,30.9-172.3-60.2-172.3-60.2c-23.2-59.2-56.8-75-56.8-75c-46.4-31.8,3.5-31.1,3.5-31.1c51.4,3.6,78.5,52.8,78.5,52.8
    c45.6,78.2,119.5,55.6,148.7,42.5c4.6-33.1,17.9-55.6,32.5-68.4c-113.6-12.9-233-56.8-233-252.9c0-55.9,20-101.5,52.7-137.2
    c-5.3-12.9-22.8-65,5-135.5c0,0,42.9-13.7,140.7,52.5c40.8-11.4,84.6-17,128.2-17.2c43.5,0.2,87.3,5.9,128.2,17.2
    c97.7-66.2,140.5-52.5,140.5-52.5c27.9,70.5,10.4,122.6,5.1,135.5c32.8,35.7,52.6,81.3,52.6,137.2c0,196.5-119.7,239.9-233.6,252.5
    c18.4,15.9,34.7,47,34.7,94.7c0,68.4-0.6,123.5-0.6,140.4c0,13.6,9.2,29.5,35.1,24.5c203-68,349.2-260.7,349.2-486.9
    C1023.2,229,794.2,0,511.6,0z" />
    
    <!-- 眼睛 -->
    <ellipse cx="373.8" cy="450" rx="40" ry="40" fill="#2B3137" />
    <ellipse cx="649.8" cy="450" rx="40" ry="40" fill="#2B3137" />
  </g>
</svg> 